<?xml version="1.0" encoding="UTF-8"?>
<svg version="1.1" xmlns="http://www.w3.org/2000/svg" width="500" height="500">
<path d="M0 0 C9.9 0 19.8 0 30 0 C30 73.92 30 147.84 30 224 C38.95610868 215.04389132 46.52061648 205.11680547 54.04296875 194.95703125 C54.77350464 194.01162476 54.77350464 194.01162476 55.51879883 193.04711914 C57.07131843 190.98582032 57.07131843 190.98582032 58.37768555 188.52905273 C60.0584252 185.78574241 61.43229248 183.95553884 64 182 C69.18805995 180.90280788 74.18822505 181.14529506 79.4375 181.4375 C80.85078374 181.48270305 82.2642066 181.52375755 83.67773438 181.56054688 C87.12140651 181.6591511 90.55980825 181.81408664 94 182 C93.46768908 185.60818601 92.73477216 187.78744329 90.375 190.56640625 C89.83818604 191.21013184 89.30137207 191.85385742 88.74829102 192.51708984 C87.88288696 193.52956787 87.88288696 193.52956787 87 194.5625 C85.79905059 196.00246461 84.59983837 197.44387981 83.40234375 198.88671875 C82.81565918 199.59103027 82.22897461 200.2953418 81.62451172 201.02099609 C78.77870667 204.48779737 76.13403827 208.09650697 73.48046875 211.7109375 C71.48658997 214.39622131 69.40249542 216.999944 67.30078125 219.6015625 C66.32999634 220.81416748 66.32999634 220.81416748 65.33959961 222.05126953 C64.04726266 223.66207351 62.74491486 225.26490547 61.43188477 226.85888672 C60.84334717 227.5963916 60.25480957 228.33389648 59.6484375 229.09375 C59.11395996 229.75052734 58.57948242 230.40730469 58.02880859 231.08398438 C56.81635284 232.9292382 56.81635284 232.9292382 57.15063477 234.97363281 C58.15233085 237.36342226 59.40505086 239.23987496 60.94140625 241.328125 C61.52470703 242.12734375 62.10800781 242.9265625 62.70898438 243.75 C63.32064453 244.575 63.93230469 245.4 64.5625 246.25 C65.17802734 247.09046875 65.79355469 247.9309375 66.42773438 248.796875 C67.94631164 250.86873236 69.47052772 252.93617964 71 255 C71.03758423 253.46291382 71.03758423 253.46291382 71.07592773 251.89477539 C71.16984484 248.10590324 71.27010317 244.31722119 71.37231445 240.52856445 C71.41572297 238.88635697 71.45739358 237.24410261 71.49731445 235.60180664 C71.5548744 233.24611255 71.61860892 230.89065572 71.68359375 228.53515625 C71.70030624 227.79660904 71.71701874 227.05806183 71.73423767 226.2971344 C71.88612829 221.11387171 71.88612829 221.11387171 73 220 C74.90243762 219.90608704 76.80838459 219.88256342 78.71313477 219.88647461 C79.95148071 219.88659546 81.18982666 219.88671631 82.46569824 219.88684082 C83.77768188 219.89195679 85.08966553 219.89707275 86.44140625 219.90234375 C87.63954956 219.90335083 88.83769287 219.90435791 90.07214355 219.90539551 C94.5689387 219.91064695 99.06572026 219.92460805 103.5625 219.9375 C113.606875 219.958125 123.65125 219.97875 134 220 C134 242.77 134 265.54 134 289 C122.12 289.33 110.24 289.66 98 290 C98 291.98 98 293.96 98 296 C72.32832899 299.30085069 72.32832899 299.30085069 64.21923828 294.27734375 C59.38588947 289.57765024 56.11689733 283.86897991 52.81542969 278.03808594 C49.7113442 272.84345982 45.92370399 268.18654298 42.1875 263.4375 C40.86526778 261.70949174 39.54601954 259.97919406 38.23046875 258.24609375 C37.67770264 257.52091553 37.12493652 256.7957373 36.55541992 256.04858398 C35.78548706 255.03453491 35.78548706 255.03453491 35 254 C34.43837158 253.29367432 33.87674316 252.58734863 33.2980957 251.85961914 C32 250 32 250 32 248 C31.34 248 30.68 248 30 248 C30 264.17 30 280.34 30 297 C19.77 297 9.54 297 -1 297 C-1.495 222.255 -1.495 222.255 -2 146 C-4.31 148.64 -6.62 151.28 -9 154 C-17.79092219 161.39236639 -27.88155764 163.44936028 -39.17578125 162.82421875 C-49.89849039 161.55290353 -60.74156101 157.29535885 -68 149 C-81.74412851 130.75247619 -83.12381251 108.45211022 -80.71142578 86.35693359 C-78.66922768 73.54179786 -72.71620852 59.81069744 -62 52 C-48.62357038 43.98990238 -36.16479063 42.39277312 -20.77734375 44.42578125 C-13.12655339 46.40213438 -7.45584874 51.49687688 -2 57 C-1.98969254 56.30064835 -1.97938507 55.60129669 -1.96876526 54.88075256 C-1.87094968 48.30286337 -1.76845843 41.7250658 -1.66066074 35.14733219 C-1.60540198 31.76532878 -1.55197744 28.38331676 -1.50268555 25.0012207 C-1.44599054 21.11660573 -1.38142415 17.23214122 -1.31640625 13.34765625 C-1.29969376 12.12788589 -1.28298126 10.90811554 -1.26576233 9.65138245 C-1.24581711 8.53029587 -1.22587189 7.40920929 -1.20532227 6.25415039 C-1.18977798 5.26153702 -1.1742337 4.26892365 -1.15821838 3.24623108 C-1 1 -1 1 0 0 Z M-46.5234375 78.640625 C-53.47651479 89.75083316 -52.54510104 107.39868385 -49.8125 119.8125 C-47.94590028 125.99670187 -45.19236914 130.02152054 -40.4375 134.3125 C-33.17377604 137.87832812 -25.18703968 138.88762329 -17.31640625 136.87890625 C-10.25326903 134.1989638 -6.32596567 129.74847604 -2.91015625 123.1484375 C-0.22224454 116.80358152 -0.73967738 110.15805983 -0.6875 103.375 C-0.65849609 102.14136719 -0.62949219 100.90773438 -0.59960938 99.63671875 C-0.5370234 90.57619534 -2.11012875 84.00170024 -6.625 76.1875 C-12.43015016 70.84065117 -18.24047059 68.67437427 -26.125 68.4375 C-35.174313 68.81986534 -40.83933372 71.52900657 -46.5234375 78.640625 Z " fill="#FEFEFE" transform="translate(224,103)"/>
<path d="M0 0 C1.07765625 -0.020625 2.1553125 -0.04125 3.265625 -0.0625 C14.98894873 -0.11899795 27.21892189 2.42728451 36.27734375 10.3515625 C38.20608987 12.27013949 40.06854745 14.2164794 41.875 16.25 C40.52045564 17.8476677 39.16280059 19.44276393 37.79296875 21.02734375 C36.38809825 22.65539124 34.99673465 24.2951206 33.61328125 25.94140625 C32.83339844 26.84761719 32.05351562 27.75382812 31.25 28.6875 C30.51523438 29.55246094 29.78046875 30.41742188 29.0234375 31.30859375 C26.875 33.25 26.875 33.25 22.875 33.25 C22.875 39.19 22.875 45.13 22.875 51.25 C24.855 51.91 26.835 52.57 28.875 53.25 C36.42003087 57.8340089 40.86402634 63.36620683 44.1875 71.4375 C45.97255882 81.33646257 45.80520703 91.59246749 40.5859375 100.43359375 C35.71157549 107.32807905 30.91576192 111.56974603 22.875 114.25 C22.875 123.82 22.875 133.39 22.875 143.25 C-3.195 143.25 -29.265 143.25 -56.125 143.25 C-56.16530303 109.18497986 -56.16530303 109.18497986 -56.17382812 94.95507812 C-56.17977126 85.11368288 -56.18677334 75.27229616 -56.20043945 65.4309082 C-56.21038586 58.26479554 -56.21685332 51.09868977 -56.21908849 43.9325704 C-56.22039568 40.13583011 -56.22348198 36.33910955 -56.23073006 32.54237556 C-56.2374896 28.97281098 -56.2396171 25.40327437 -56.23810768 21.83370399 C-56.23851636 19.89085154 -56.2439119 17.94800216 -56.24942017 16.00515747 C-56.2480455 14.85945786 -56.24667084 13.71375824 -56.24525452 12.53334045 C-56.24617631 11.53135148 -56.2470981 10.52936251 -56.24804783 9.49701023 C-56.125 7.25 -56.125 7.25 -55.125 6.25 C-53.17017353 6.14019103 -51.21171376 6.09407539 -49.25390625 6.07421875 C-47.43149414 6.03844727 -47.43149414 6.03844727 -45.57226562 6.00195312 C-43.01773857 5.95957032 -40.46300499 5.92800779 -37.90820312 5.90820312 C-31.04909817 5.75321547 -25.51546581 5.17768825 -19.28881836 2.19848633 C-13.1815292 -0.47857769 -6.53622117 0.03061462 0 0 Z " fill="#FEFDFA" transform="translate(175.125,282.75)"/>
<path d="M0 0 C2.75 2.375 2.75 2.375 5 5 C5.73669922 5.84304687 5.73669922 5.84304687 6.48828125 6.703125 C13.23422709 14.93887029 16.14764894 24.84607348 16.09765625 35.39453125 C16.09282227 37.19760742 16.09282227 37.19760742 16.08789062 39.03710938 C16.07532227 40.90592773 16.07532227 40.90592773 16.0625 42.8125 C16.05798828 44.07771484 16.05347656 45.34292969 16.04882812 46.64648438 C16.03706251 49.7643711 16.02062272 52.88216133 16 56 C13.03592441 57.48203779 10.37920835 57.11920826 7.07177734 57.11352539 C6.00332329 57.11374443 6.00332329 57.11374443 4.9132843 57.1139679 C2.55413794 57.11327011 0.19507011 57.10548397 -2.1640625 57.09765625 C-3.79788164 57.0957916 -5.43170134 57.09436792 -7.06552124 57.09336853 C-11.3694818 57.08954709 -15.67340871 57.07971998 -19.97735596 57.06866455 C-24.36771184 57.05844242 -28.75807315 57.05386919 -33.1484375 57.04882812 C-41.76564046 57.03809739 -50.38281604 57.02102543 -59 57 C-58.6901348 58.60489007 -58.37720915 60.20918946 -58.06298828 61.81323242 C-57.88905548 62.70668869 -57.71512268 63.60014496 -57.53591919 64.52067566 C-56.21941992 70.61119966 -53.65489756 76.29151885 -48.5 80 C-40.29793904 84.3322916 -30.6716213 84.73318748 -21.73046875 82.890625 C-14.84829221 80.64579488 -10.51900556 76.15825974 -7 70 C-1.17165514 70.43206973 2.62463683 72.93997375 7.375 76.0625 C8.11105469 76.53494141 8.84710938 77.00738281 9.60546875 77.49414062 C11.40942165 78.65382463 13.2055239 79.82570507 15 81 C14.16424844 86.61702793 11.57834601 89.7385152 8 94 C7.4946875 94.61359375 6.989375 95.2271875 6.46875 95.859375 C-2.78358668 106.10951269 -15.85673911 109.19608021 -29.0859375 109.9609375 C-45.89842719 110.12872682 -61.12530259 106.40978793 -74 95 C-85.72290207 82.89965601 -89.59285709 66.59174047 -89.4375 50.1875 C-89.42920166 49.05038574 -89.42090332 47.91327148 -89.41235352 46.74169922 C-89.09158127 30.72591765 -84.89796688 17.00888716 -73.6875 5.125 C-54.60482475 -12.6405209 -21.34034388 -15.46287394 0 0 Z M-51.69921875 19.625 C-56.76442505 25.51192257 -56.95862148 29.83448593 -59 38 C-43.49 38 -27.98 38 -12 38 C-12 30.93531223 -12.02138201 25.32612343 -16.875 19.90625 C-23.57706537 13.89410313 -29.33422162 13.55743321 -38.03515625 13.73046875 C-44.05199941 14.13949553 -47.3925311 15.50642055 -51.69921875 19.625 Z " fill="#FEFEFE" transform="translate(347,156)"/>
<path d="M0 0 C1.5631897 0.00785522 1.5631897 0.00785522 3.15795898 0.01586914 C4.28266602 0.0190918 5.40737305 0.02231445 6.56616211 0.02563477 C7.75016602 0.03401367 8.93416992 0.04239258 10.15405273 0.05102539 C11.34192383 0.05553711 12.52979492 0.06004883 13.75366211 0.06469727 C16.69967499 0.07652864 19.64558954 0.09301252 22.59155273 0.11352539 C21.37277204 2.81821679 20.76653376 3.99056575 18.27905273 5.73852539 C12.55281247 10.79892377 9.97861701 18.20078649 9.38842773 25.69165039 C9.21746302 35.43663902 11.26838211 43.28196206 17.98217773 50.63696289 C25.77357629 58.08796054 36.01271217 60.31891173 46.21655273 62.61352539 C63.21279592 66.44516085 63.21279592 66.44516085 68.77905273 72.48852539 C69.90339751 76.12102388 69.57245778 78.4514799 68.59155273 82.11352539 C66.61162172 85.54032908 65.22165308 86.83785649 61.59155273 88.42602539 C51.1830937 90.68488246 41.98434595 89.01783539 32.59155273 84.11352539 C28.53713829 81.2890324 25.17994745 78.87870954 23.59155273 74.11352539 C18.68797942 75.59367808 15.84703773 78.37328508 12.34155273 81.92602539 C11.80014648 82.44745117 11.25874023 82.96887695 10.70092773 83.50610352 C7.70289629 86.5078825 5.61408041 88.75066525 5.59155273 93.11352539 C7.65181992 95.75934163 7.65181992 95.75934163 10.59155273 98.11352539 C11.51967773 98.95915039 12.44780273 99.80477539 13.40405273 100.67602539 C16.88736876 103.48373604 20.45306387 105.42448359 24.59155273 107.11352539 C25.49776367 107.48864258 26.40397461 107.86375977 27.33764648 108.25024414 C35.44055868 111.07684142 42.9977113 111.4761674 51.52905273 111.48852539 C52.60727295 111.49013672 53.68549316 111.49174805 54.79638672 111.4934082 C60.48544744 111.41366123 65.19062022 110.83796106 70.59155273 109.11352539 C72.24155273 109.11352539 73.89155273 109.11352539 75.59155273 109.11352539 C75.59155273 118.35352539 75.59155273 127.59352539 75.59155273 137.11352539 C49.52155273 137.11352539 23.45155273 137.11352539 -3.40844727 137.11352539 C-3.4487503 103.04850525 -3.4487503 103.04850525 -3.45727539 88.81860352 C-3.46321853 78.97720827 -3.4702206 69.13582155 -3.48388672 59.29443359 C-3.49383313 52.12832093 -3.50030059 44.96221516 -3.50253576 37.79609579 C-3.50384294 33.9993555 -3.50692925 30.20263494 -3.51417732 26.40590096 C-3.52093687 22.83633637 -3.52306436 19.26679976 -3.52155495 15.69722939 C-3.52196362 13.75437693 -3.52735916 11.81152755 -3.53286743 9.86868286 C-3.53149277 8.72298325 -3.5301181 7.57728363 -3.52870178 6.39686584 C-3.52962358 5.39487687 -3.53054537 4.3928879 -3.53149509 3.36053562 C-3.35977592 0.22472452 -3.14563311 0.14827363 0 0 Z " fill="#FCB404" transform="translate(122.408447265625,288.886474609375)"/>
<path d="M0 0 C1.62215675 0.00333092 1.62215675 0.00333092 3.27708435 0.00672913 C4.5154303 0.00684998 5.75377625 0.00697083 7.02964783 0.00709534 C8.99762329 0.01476929 8.99762329 0.01476929 11.00535583 0.02259827 C12.8025708 0.02410889 12.8025708 0.02410889 14.63609314 0.02565002 C19.13288829 0.03090147 23.62966985 0.04486257 28.12644958 0.05775452 C38.17082458 0.07837952 48.21519958 0.09900452 58.56394958 0.12025452 C58.56394958 22.89025452 58.56394958 45.66025452 58.56394958 69.12025452 C40.68894958 69.55775452 40.68894958 69.55775452 35.04881287 69.68836975 C33.57728618 69.72648771 32.10576852 69.76495641 30.63426208 69.80384827 C29.48365295 69.82856201 29.48365295 69.82856201 28.30979919 69.85377502 C24.30602673 69.88245387 24.30602673 69.88245387 20.56394958 71.12025452 C18.43708189 68.24663223 16.31283834 65.37107904 14.18894958 62.49525452 C13.60500427 61.70634827 13.02105896 60.91744202 12.41941833 60.10462952 C11.16606127 58.40653285 9.92670608 56.69804296 8.69895935 54.9813385 C7.14459445 52.89836512 5.58522423 50.97501248 3.88011169 49.02674866 C-4.29715909 39.3111803 -4.72566608 31.17948177 -4.12355042 18.80775452 C-4.08184661 17.09757392 -4.04470923 15.38727565 -4.01222229 13.67689514 C-3.68832657 0.18207256 -3.68832657 0.18207256 0 0 Z " fill="#284594" transform="translate(299.43605041503906,322.87974548339844)"/>
<path d="M0 0 C1.45193253 -0.01441132 1.45193253 -0.01441132 2.93319702 -0.02911377 C4.50661362 -0.03548859 4.50661362 -0.03548859 6.11181641 -0.04199219 C7.72475082 -0.0505423 7.72475082 -0.0505423 9.37026978 -0.05926514 C11.64836643 -0.06872322 13.92647681 -0.07525231 16.20458984 -0.07910156 C19.69213697 -0.08880807 23.17909517 -0.11982477 26.66650391 -0.15136719 C28.8774379 -0.15789698 31.08837611 -0.16314754 33.29931641 -0.16699219 C34.34421234 -0.17933899 35.38910828 -0.19168579 36.46566772 -0.20440674 C37.92705673 -0.19990509 37.92705673 -0.19990509 39.41796875 -0.1953125 C40.27353363 -0.19895813 41.12909851 -0.20260376 42.0105896 -0.20635986 C44.89664897 0.249268 46.24581484 1.14314818 48.33837891 3.16113281 C49.44211269 7.13457443 49.75381473 9.25113053 48.02587891 13.03613281 C46.33837891 15.16113281 46.33837891 15.16113281 44.33837891 16.16113281 C42.78728637 16.27120777 41.23164793 16.32021072 39.67675781 16.33813477 C38.22482529 16.35738762 38.22482529 16.35738762 36.74356079 16.37702942 C35.1701442 16.38810982 35.1701442 16.38810982 33.56494141 16.39941406 C32.48965179 16.40748581 31.41436218 16.41555756 30.30648804 16.4238739 C28.02839779 16.43772025 25.75028674 16.44843993 23.47216797 16.45629883 C19.98446514 16.47352864 16.49770586 16.51741279 13.01025391 16.56152344 C10.79932339 16.5716486 8.58838481 16.58016525 6.37744141 16.58691406 C5.33254547 16.60442215 4.28764954 16.62193024 3.21109009 16.63996887 C-4.02119171 16.61825132 -4.02119171 16.61825132 -7.29296875 14.28295898 C-8.94242825 11.72579656 -9.58877958 10.22047651 -9.66162109 7.16113281 C-7.34728668 1.43039997 -6.04800299 0.04835721 0 0 Z " fill="#FD0080" transform="translate(294.66162109375,118.8388671875)"/>
<path d="M0 0 C2.1796875 1.30078125 2.1796875 1.30078125 4.125 2.6875 C4.86492187 3.038125 5.60484375 3.38875 6.3671875 3.75 C9.36568116 7.05500635 8.53761895 11.09999792 8.375 15.375 C8.35695312 16.26767578 8.33890625 17.16035156 8.3203125 18.08007812 C8.27317759 20.28363504 8.20740657 22.48502601 8.125 24.6875 C1.28137148 24.04810555 -5.29698172 22.88340835 -12 21.375 C-12.95003906 21.17455078 -13.90007812 20.97410156 -14.87890625 20.76757812 C-21.65810358 19.24907553 -27.83668083 17.74497875 -31.875 11.6875 C-32.42294521 4.78339041 -32.42294521 4.78339041 -30.6875 1.3125 C-23.4764681 -5.15256308 -8.1539758 -4.04651714 0 0 Z " fill="#FAB407" transform="translate(189.875,308.3125)"/>
<path d="M0 0 C1.5631897 0.00785522 1.5631897 0.00785522 3.15795898 0.01586914 C4.28266602 0.0190918 5.40737305 0.02231445 6.56616211 0.02563477 C7.75016602 0.03401367 8.93416992 0.04239258 10.15405273 0.05102539 C11.34192383 0.05553711 12.52979492 0.06004883 13.75366211 0.06469727 C16.69967499 0.07652864 19.64558954 0.09301252 22.59155273 0.11352539 C21.77905273 2.05102539 21.77905273 2.05102539 20.59155273 4.11352539 C19.60155273 4.44352539 18.61155273 4.77352539 17.59155273 5.11352539 C16.93155273 4.45352539 16.27155273 3.79352539 15.59155273 3.11352539 C9.98155273 2.78352539 4.37155273 2.45352539 -1.40844727 2.11352539 C-1.40844727 46.33352539 -1.40844727 90.55352539 -1.40844727 136.11352539 C23.67155273 136.11352539 48.75155273 136.11352539 74.59155273 136.11352539 C74.59155273 127.86352539 74.59155273 119.61352539 74.59155273 111.11352539 C69.1233393 111.76059355 69.1233393 111.76059355 64.59155273 114.11352539 C61.16134932 114.36546602 57.71741363 114.29875285 54.27905273 114.30102539 C53.31547852 114.31327148 52.3519043 114.32551758 51.35913086 114.33813477 C50.42907227 114.34006836 49.49901367 114.34200195 48.54077148 114.34399414 C47.68829834 114.34810303 46.8358252 114.35221191 45.95751953 114.35644531 C43.41434926 114.09533145 41.78534961 113.39242185 39.59155273 112.11352539 C40.28192627 112.09370605 40.9722998 112.07388672 41.68359375 112.0534668 C44.84076744 111.95764246 47.99733095 111.84819725 51.15405273 111.73852539 C52.24008789 111.70758789 53.32612305 111.67665039 54.44506836 111.64477539 C60.21373934 111.43436794 65.10458314 110.85071267 70.59155273 109.11352539 C72.24155273 109.11352539 73.89155273 109.11352539 75.59155273 109.11352539 C75.59155273 118.35352539 75.59155273 127.59352539 75.59155273 137.11352539 C49.52155273 137.11352539 23.45155273 137.11352539 -3.40844727 137.11352539 C-3.4487503 103.04850525 -3.4487503 103.04850525 -3.45727539 88.81860352 C-3.46321853 78.97720827 -3.4702206 69.13582155 -3.48388672 59.29443359 C-3.49383313 52.12832093 -3.50030059 44.96221516 -3.50253576 37.79609579 C-3.50384294 33.9993555 -3.50692925 30.20263494 -3.51417732 26.40590096 C-3.52093687 22.83633637 -3.52306436 19.26679976 -3.52155495 15.69722939 C-3.52196362 13.75437693 -3.52735916 11.81152755 -3.53286743 9.86868286 C-3.53149277 8.72298325 -3.5301181 7.57728363 -3.52870178 6.39686584 C-3.52962358 5.39487687 -3.53054537 4.3928879 -3.53149509 3.36053562 C-3.35977592 0.22472452 -3.14563311 0.14827363 0 0 Z " fill="#E0AF39" transform="translate(122.408447265625,288.886474609375)"/>
<path d="M0 0 C1.45193253 -0.01441132 1.45193253 -0.01441132 2.93319702 -0.02911377 C4.50661362 -0.03548859 4.50661362 -0.03548859 6.11181641 -0.04199219 C7.72475082 -0.0505423 7.72475082 -0.0505423 9.37026978 -0.05926514 C11.64836643 -0.06872322 13.92647681 -0.07525231 16.20458984 -0.07910156 C19.69213697 -0.08880807 23.17909517 -0.11982477 26.66650391 -0.15136719 C28.8774379 -0.15789698 31.08837611 -0.16314754 33.29931641 -0.16699219 C34.34421234 -0.17933899 35.38910828 -0.19168579 36.46566772 -0.20440674 C37.92705673 -0.19990509 37.92705673 -0.19990509 39.41796875 -0.1953125 C40.27353363 -0.19895813 41.12909851 -0.20260376 42.0105896 -0.20635986 C44.89664897 0.249268 46.24581484 1.14314818 48.33837891 3.16113281 C49.44211269 7.13457443 49.75381473 9.25113053 48.02587891 13.03613281 C46.33837891 15.16113281 46.33837891 15.16113281 44.33837891 16.16113281 C42.78728637 16.27120777 41.23164793 16.32021072 39.67675781 16.33813477 C38.22482529 16.35738762 38.22482529 16.35738762 36.74356079 16.37702942 C35.1701442 16.38810982 35.1701442 16.38810982 33.56494141 16.39941406 C32.48965179 16.40748581 31.41436218 16.41555756 30.30648804 16.4238739 C28.02839779 16.43772025 25.75028674 16.44843993 23.47216797 16.45629883 C19.98446514 16.47352864 16.49770586 16.51741279 13.01025391 16.56152344 C10.79932339 16.5716486 8.58838481 16.58016525 6.37744141 16.58691406 C5.33254547 16.60442215 4.28764954 16.62193024 3.21109009 16.63996887 C-4.02119171 16.61825132 -4.02119171 16.61825132 -7.29296875 14.28295898 C-8.94242825 11.72579656 -9.58877958 10.22047651 -9.66162109 7.16113281 C-7.34728668 1.43039997 -6.04800299 0.04835721 0 0 Z M-5.66162109 2.16113281 C-5.66162109 3.15113281 -5.66162109 4.14113281 -5.66162109 5.16113281 C-6.32162109 5.16113281 -6.98162109 5.16113281 -7.66162109 5.16113281 C-7.89590423 9.95086491 -7.89590423 9.95086491 -5.66162109 14.16113281 C-3.55493825 14.60515129 -3.55493825 14.60515129 -1.09179688 14.51757812 C0.33010452 14.52207977 0.33010452 14.52207977 1.7807312 14.52667236 C3.32133713 14.50815216 3.32133713 14.50815216 4.89306641 14.48925781 C5.94615997 14.48738464 6.99925354 14.48551147 8.08425903 14.48358154 C10.31531938 14.47684948 12.5463677 14.46291228 14.77734375 14.44238281 C18.1923317 14.41132423 21.60685769 14.40142228 25.02197266 14.39550781 C27.18734286 14.38633396 29.35270837 14.37595698 31.51806641 14.36425781 C32.54108856 14.36000793 33.56411072 14.35575806 34.61813354 14.35137939 C35.57237213 14.34177185 36.52661072 14.33216431 37.50976562 14.32226562 C38.34756561 14.31543762 39.1853656 14.30860962 40.04855347 14.30157471 C42.26707533 14.16550608 44.2074737 13.77589286 46.33837891 13.16113281 C46.36526041 11.51538715 46.38472014 9.86951868 46.40087891 8.22363281 C46.41248047 7.30710937 46.42408203 6.39058594 46.43603516 5.44628906 C46.5978694 3.19519954 46.5978694 3.19519954 45.33837891 2.16113281 C43.74226909 2.06779576 42.14204463 2.04367909 40.54321289 2.04760742 C39.01173866 2.04772072 39.01173866 2.04772072 37.44932556 2.0478363 C36.3389241 2.05299759 35.22852264 2.05815887 34.08447266 2.06347656 C32.38859764 2.06559898 32.38859764 2.06559898 30.65846252 2.06776428 C27.03090825 2.07338262 23.40341467 2.08593823 19.77587891 2.09863281 C17.32340584 2.10364545 14.8709318 2.10820876 12.41845703 2.11230469 C6.39174345 2.12335801 0.36506551 2.14011398 -5.66162109 2.16113281 Z " fill="#D51674" transform="translate(294.66162109375,118.8388671875)"/>
<path d="M0 0 C8.25 0 16.5 0 25 0 C24.34 1.32 23.68 2.64 23 4 C22.01 4.33 21.02 4.66 20 5 C19.34 4.34 18.68 3.68 18 3 C12.39 2.67 6.78 2.34 1 2 C1 46.22 1 90.44 1 136 C0.67 136 0.34 136 0 136 C0 91.12 0 46.24 0 0 Z " fill="#F4B31C" transform="translate(120,289)"/>
<path d="M0 0 C1.13142426 -0.00637985 2.26284851 -0.0127597 3.42855835 -0.01933289 C5.27690781 -0.02100212 5.27690781 -0.02100212 7.16259766 -0.02270508 C8.41924225 -0.02603348 9.67588684 -0.02936188 10.97061157 -0.03279114 C13.63555425 -0.03786614 16.30039504 -0.04063044 18.96533203 -0.04003906 C22.38078949 -0.03993753 25.79603865 -0.05357742 29.21144676 -0.07081127 C32.46598935 -0.08460496 35.72052979 -0.08402014 38.97509766 -0.08520508 C40.20328217 -0.09239059 41.43146667 -0.09957611 42.6968689 -0.10697937 C43.83459747 -0.10390274 44.97232605 -0.10082611 46.14453125 -0.09765625 C47.64891251 -0.09979378 47.64891251 -0.09979378 49.1836853 -0.10197449 C51.70166016 0.14526367 51.70166016 0.14526367 54.70166016 2.14526367 C34.90166016 2.47526367 15.10166016 2.80526367 -5.29833984 3.14526367 C-5.29833984 10.07526367 -5.29833984 17.00526367 -5.29833984 24.14526367 C-5.62833984 24.14526367 -5.95833984 24.14526367 -6.29833984 24.14526367 C-6.32721221 20.33277941 -6.34509476 16.52032297 -6.36083984 12.70776367 C-6.36921875 11.61915039 -6.37759766 10.53053711 -6.38623047 9.40893555 C-6.38945312 8.37446289 -6.39267578 7.33999023 -6.39599609 6.27416992 C-6.40123291 5.31583252 -6.40646973 4.35749512 -6.41186523 3.37011719 C-6.193276 -0.9137618 -3.71732029 0.01415086 0 0 Z " fill="#2B3D77" transform="translate(302.29833984375,322.854736328125)"/>
<path d="M0 0 C2.64 0 5.28 0 8 0 C8 0.66 8 1.32 8 2 C12.39675988 1.88202982 16.79328399 1.75780274 21.18969727 1.62768555 C22.68639269 1.58428187 24.18313939 1.54261087 25.67993164 1.50268555 C27.82714312 1.44511384 29.97409521 1.38138284 32.12109375 1.31640625 C33.4145874 1.27974854 34.70808105 1.24309082 36.04077148 1.20532227 C38.88555008 1.3332722 38.88555008 1.3332722 40 0 C42.67058851 -0.14115161 45.32432238 -0.04247107 48 0 C48 0.33 48 0.66 48 1 C39.69026016 3.4474846 32.08653577 4.47127869 23.4375 4.375 C22.39142578 4.38660156 21.34535156 4.39820313 20.26757812 4.41015625 C13.08979646 4.38342336 6.81761946 3.22661 0 1 C0 0.67 0 0.34 0 0 Z " fill="#FEF7C6" transform="translate(150,397)"/>
<path d="M0 0 C0.66 0.33 1.32 0.66 2 1 C1.21625 1.556875 0.4325 2.11375 -0.375 2.6875 C-3.08704858 5.07668565 -3.96133543 6.60073413 -5 10 C-4.34 10 -3.68 10 -3 10 C-2.9175 10.78375 -2.835 11.5675 -2.75 12.375 C-2.27521535 15.05407444 -2.27521535 15.05407444 -0.375 16.1875 C4.15708335 17.73794957 8.47405517 18.99853448 13.25 19.4375 C17 20 17 20 19 21.5625 C19.33 22.036875 19.66 22.51125 20 23 C11.22408847 22.04262783 3.44547674 21.01430066 -4 16 C-6.46205478 12.30691783 -6.57042512 9.28683122 -6 5 C-4.25746655 1.76386646 -3.52814056 1.17604685 0 0 Z " fill="#F1BF3D" transform="translate(164,307)"/>
<path d="M0 0 C1.5625 1.5625 1.5625 1.5625 3 4 C2.92838871 7.93862078 2.34728704 10.39892627 0.375 13.8125 C-4.92691156 18.69583959 -11.30974422 18.30650322 -18.17578125 18.203125 C-21.37014217 17.97337843 -24.07143798 17.30158312 -27 16 C-27 15.67 -27 15.34 -27 15 C-19.25 14.875 -19.25 14.875 -17 16 C-14.68952083 16.01444177 -14.68952083 16.01444177 -12.125 15.75 C-10.82949219 15.64945312 -10.82949219 15.64945312 -9.5078125 15.546875 C-6.67567068 14.92927398 -5.17242467 13.87939995 -3 12 C-2.34 12.33 -1.68 12.66 -1 13 C-0.83052421 11.58366664 -0.66454493 10.16691467 -0.5 8.75 C-0.36078125 7.56664062 -0.36078125 7.56664062 -0.21875 6.359375 C0.06154619 3.73109603 0.06154619 3.73109603 0 0 Z " fill="#F1B92C" transform="translate(189,360)"/>
<path d="M0 0 C8.25 0 16.5 0 25 0 C24.34 1.32 23.68 2.64 23 4 C22.01 4.33 21.02 4.66 20 5 C19.34 4.34 18.68 3.68 18 3 C15.10032243 2.69324768 12.28216822 2.48826629 9.375 2.375 C8.57320312 2.33632813 7.77140625 2.29765625 6.9453125 2.2578125 C4.96392444 2.16346069 2.98199355 2.08063785 1 2 C1 5.63 1 9.26 1 13 C0.67 13 0.34 13 0 13 C0 8.71 0 4.42 0 0 Z " fill="#E8B12F" transform="translate(120,289)"/>
<path d="M0 0 C0 0.66 0 1.32 0 2 C-0.95712891 2.19916016 -0.95712891 2.19916016 -1.93359375 2.40234375 C-2.75988281 2.57894531 -3.58617187 2.75554687 -4.4375 2.9375 C-5.26121094 3.11152344 -6.08492187 3.28554688 -6.93359375 3.46484375 C-8.97661204 3.80752994 -8.97661204 3.80752994 -10 5 C-13.43020341 5.25194063 -16.87413911 5.18522745 -20.3125 5.1875 C-21.27607422 5.19974609 -22.23964844 5.21199219 -23.23242188 5.22460938 C-24.16248047 5.22654297 -25.09253906 5.22847656 -26.05078125 5.23046875 C-26.90325439 5.23457764 -27.75572754 5.23868652 -28.6340332 5.24291992 C-31.17720347 4.98180606 -32.80620312 4.27889646 -35 3 C-34.30962646 2.98018066 -33.61925293 2.96036133 -32.90795898 2.93994141 C-29.75078529 2.84411707 -26.59422178 2.73467186 -23.4375 2.625 C-22.35146484 2.5940625 -21.26542969 2.563125 -20.14648438 2.53125 C-13.27609264 2.2806582 -6.68893658 0 0 0 Z " fill="#EFB82F" transform="translate(197,398)"/>
<path d="M0 0 C0.33 0 0.66 0 1 0 C1.02578125 1.26714844 1.0515625 2.53429687 1.078125 3.83984375 C1.35016262 12.80197213 1.62573301 19.98051051 6 28 C5.67 28.66 5.34 29.32 5 30 C4.17886823 28.60922699 3.36847505 27.21211107 2.5625 25.8125 C2.11003906 25.03519531 1.65757812 24.25789063 1.19140625 23.45703125 C-0.87681525 19.19174822 -1.13817699 15.19100831 -1.125 10.5 C-1.12757813 9.5821875 -1.13015625 8.664375 -1.1328125 7.71875 C-1.00244035 5.04995546 -0.59378606 2.60134847 0 0 Z " fill="#FEEFB5" transform="translate(132,307)"/>
<path d="M0 0 C0.33 0.66 0.66 1.32 1 2 C0.67 2.99 0.34 3.98 0 5 C-5.22722871 6.04714842 -10.31460885 6.25122626 -15.625 6.3125 C-16.8934375 6.35600586 -16.8934375 6.35600586 -18.1875 6.40039062 C-24.40568314 6.46414171 -24.40568314 6.46414171 -27.5859375 3.98046875 C-28.05257812 3.32691406 -28.51921875 2.67335938 -29 2 C-27.9275 2.33 -26.855 2.66 -25.75 3 C-17.13256769 5.12379981 -9.02683487 4.78624286 -1 1 C-0.67 0.67 -0.34 0.34 0 0 Z " fill="#FFF9CE" transform="translate(189,373)"/>
<path d="M0 0 C4.455 0.99 4.455 0.99 9 2 C9 2.66 9 3.32 9 4 C9.99 4.33 10.98 4.66 12 5 C11.67 6.32 11.34 7.64 11 9 C9.29115995 7.37660195 7.62553283 5.70680947 6 4 C6 3.34 6 2.68 6 2 C2.54074837 3.2491742 -0.14693203 4.67527795 -3 7 C-2.690625 6.401875 -2.38125 5.80375 -2.0625 5.1875 C-0.89790296 2.91043228 -0.89790296 2.91043228 0 0 Z " fill="#F0BC2E" transform="translate(140,361)"/>
<path d="M0 0 C0.85722656 0.33773438 1.71445313 0.67546875 2.59765625 1.0234375 C8.34845155 3.26670151 14.0162772 5.46928021 20 7 C16.18243176 8.37432457 12.92744671 7.67975039 9 7 C9 6.34 9 5.68 9 5 C8.2575 4.87625 7.515 4.7525 6.75 4.625 C4.19858515 4.04513299 2.2732427 3.26291261 0 2 C0 1.34 0 0.68 0 0 Z " fill="#F1BA31" transform="translate(145,344)"/>
<path d="M0 0 C0 0.99 0 1.98 0 3 C1.98 3.66 3.96 4.32 6 5 C6 5.66 6 6.32 6 7 C6.99 7.33 7.98 7.66 9 8 C8.01 8.495 8.01 8.495 7 9 C4.43359375 7.85546875 4.43359375 7.85546875 1.4375 6.1875 C-0.04943359 5.37345703 -0.04943359 5.37345703 -1.56640625 4.54296875 C-4 3 -4 3 -5 1 C-2 0 -2 0 0 0 Z " fill="#FDF4C7" transform="translate(140,388)"/>
<path d="M0 0 C0 0.66 0 1.32 0 2 C-0.99 2 -1.98 2 -3 2 C-3 2.66 -3 3.32 -3 4 C-4.53125 5.2890625 -4.53125 5.2890625 -6.5 6.625 C-7.1496875 7.07101562 -7.799375 7.51703125 -8.46875 7.9765625 C-8.9740625 8.31429688 -9.479375 8.65203125 -10 9 C-10.66 8.67 -11.32 8.34 -12 8 C-10.76284282 6.6547417 -9.50975423 5.32412124 -8.25 4 C-7.20585937 2.88625 -7.20585937 2.88625 -6.140625 1.75 C-4 0 -4 0 0 0 Z " fill="#FEF5CC" transform="translate(146,363)"/>
<path d="M0 0 C1.9375 0.5625 1.9375 0.5625 4 2 C4.92678615 5.57474656 5.40411569 7.9492992 4.0625 11.4375 C3.711875 11.953125 3.36125 12.46875 3 13 C2.67 13 2.34 13 2 13 C1.93941406 12.22914063 1.87882812 11.45828125 1.81640625 10.6640625 C1.73261719 9.66117188 1.64882813 8.65828125 1.5625 7.625 C1.48128906 6.62726563 1.40007812 5.62953125 1.31640625 4.6015625 C1.15034374 2.02072387 1.15034374 2.02072387 0 0 Z " fill="#D3106C" transform="translate(339,120)"/>
<path d="M0 0 C6.28260706 -0.23268915 11.88019467 0.59545452 18 2 C18 2.33 18 2.66 18 3 C5.33029613 3.3690205 5.33029613 3.3690205 0 1 C0 0.67 0 0.34 0 0 Z " fill="#F1BD3A" transform="translate(162,375)"/>
<path d="M0 0 C0.33 1.32 0.66 2.64 1 4 C2.65 4.33 4.3 4.66 6 5 C5.67 6.65 5.34 8.3 5 10 C2.03595495 7.19195732 -0.44499019 4.81684226 -2 1 C-1.34 0.67 -0.68 0.34 0 0 Z " fill="#324A89" transform="translate(309,374)"/>
<path d="M0 0 C6.93 0.495 6.93 0.495 14 1 C14 1.66 14 2.32 14 3 C14.99 3.33 15.98 3.66 17 4 C11.147205 3.48517081 5.6702363 2.54642808 0 1 C0 0.67 0 0.34 0 0 Z " fill="#FEF6C6" transform="translate(162,350)"/>
<path d="M0 0 C1.58467728 0.28427417 3.1677057 0.57774818 4.75 0.875 C6.07257813 1.11863281 6.07257813 1.11863281 7.421875 1.3671875 C9.86947744 1.96796264 11.80599857 2.77997117 14 4 C8.32723489 4.29341888 5.00932754 4.00559652 0 1 C0 0.67 0 0.34 0 0 Z " fill="#F1B933" transform="translate(147,397)"/>
<path d="M0 0 C3.3 0 6.6 0 10 0 C10 0.99 10 1.98 10 3 C10.66 3.33 11.32 3.66 12 4 C7.80530429 3.40075776 3.99000166 2.42500059 0 1 C0 0.67 0 0.34 0 0 Z " fill="#FEF5CE" transform="translate(150,346)"/>
<path d="M0 0 C0.33 1.32 0.66 2.64 1 4 C1.99 4 2.98 4 4 4 C4.33 5.65 4.66 7.3 5 9 C1.125 7.125 1.125 7.125 0 6 C-0.04080783 4.00041636 -0.04254356 1.99954746 0 0 Z " fill="#364789" transform="translate(297,357)"/>
<path d="M0 0 C0.33 0.66 0.66 1.32 1 2 C0.67 2.99 0.34 3.98 0 5 C-2.97 5 -5.94 5 -9 5 C-7.68 4.34 -6.36 3.68 -5 3 C-3.32665961 2.01120795 -1.65848177 1.01351664 0 0 Z " fill="#FEF4BC" transform="translate(189,373)"/>
<path d="M0 0 C0 0.33 0 0.66 0 1 C-4.17737474 2.59138085 -7.53160785 3.21278058 -12 3 C-8.2391768 -0.7608232 -5.0273023 -0.25136512 0 0 Z " fill="#FBF4C6" transform="translate(198,397)"/>
<path d="M0 0 C1.27875 0.28875 2.5575 0.5775 3.875 0.875 C4.95394531 1.11863281 4.95394531 1.11863281 6.0546875 1.3671875 C8 2 8 2 10 4 C7.03 3.67 4.06 3.34 1 3 C0.67 2.01 0.34 1.02 0 0 Z " fill="#FAF1C3" transform="translate(192,332)"/>
</svg>
